<svg width="860" height="670" viewBox="0 0 860 670" fill="none" xmlns="http://www.w3.org/2000/svg">
<path d="M370.4 432V349.2L560 78H674.6V343.2H723.8V432H674.6V510H572V432H370.4ZM579.2 190.8L478.4 343.2H579.2V190.8Z" fill="#5A82C6"/>
<path d="M207.552 407.144C217.451 351.165 237.931 306.621 268.992 273.512C300.053 240.403 341.525 223.848 393.408 223.848C436.416 223.848 468.16 235.453 488.64 258.664C509.461 281.533 519.872 313.277 519.872 353.896C519.872 371.304 518.165 389.053 514.752 407.144C504.853 463.123 484.373 507.837 453.312 541.288C422.251 574.397 380.779 590.952 328.896 590.952C285.888 590.952 253.973 579.517 233.152 556.648C212.672 533.437 202.432 501.352 202.432 460.392C202.432 446.056 204.139 428.307 207.552 407.144ZM402.624 407.144C405.355 393.491 406.72 381.203 406.72 370.28C406.72 344.339 395.968 331.368 374.464 331.368C357.397 331.368 344.939 338.024 337.088 351.336C329.579 364.307 323.605 382.909 319.168 407.144C316.437 421.48 315.072 433.768 315.072 444.008C315.072 456.637 317.461 466.365 322.24 473.192C327.36 480.019 335.893 483.432 347.84 483.432C364.565 483.432 376.683 476.776 384.192 463.464C392.043 450.152 398.187 431.379 402.624 407.144Z" fill="#E6ECF7"/>
<path d="M751.808 597.096C734.059 597.096 720.064 592.829 709.824 584.296C699.925 575.763 694.976 564.669 694.976 551.016C694.976 539.069 698.219 527.976 704.704 517.736C711.531 507.496 720.747 499.475 732.352 493.672C744.299 487.528 757.44 484.456 771.776 484.456C789.184 484.456 802.837 488.893 812.736 497.768C822.635 506.301 827.584 517.395 827.584 531.048C827.584 542.995 824.341 554.088 817.856 564.328C811.371 574.227 802.325 582.248 790.72 588.392C779.115 594.195 766.144 597.096 751.808 597.096Z" fill="#FF3B3F"/>
<path d="M29.4 432V349.2L219 78H333.6V343.2H382.8V432H333.6V510H231V432H29.4ZM238.2 190.8L137.4 343.2H238.2V190.8Z" fill="#061A40"/>
</svg>
