<svg width="30" height="36" viewBox="0 0 30 36" fill="none" xmlns="http://www.w3.org/2000/svg">
<path d="M18.3334 1.78235V8.66659C18.3334 9.60001 18.3334 10.0667 18.5151 10.4232C18.6749 10.7368 18.9298 10.9918 19.2434 11.1516C19.5999 11.3333 20.0667 11.3333 21.0001 11.3333H27.8843M28.3334 14.647V26.6666C28.3334 29.4668 28.3334 30.867 27.7884 31.9365C27.3091 32.8773 26.5442 33.6423 25.6034 34.1216C24.5338 34.6666 23.1337 34.6666 20.3334 34.6666H9.66675C6.86649 34.6666 5.46635 34.6666 4.3968 34.1216C3.45599 33.6423 2.69108 32.8773 2.21172 31.9365C1.66675 30.867 1.66675 29.4668 1.66675 26.6666V9.33325C1.66675 6.53299 1.66675 5.13286 2.21172 4.0633C2.69108 3.12249 3.45599 2.35759 4.3968 1.87822C5.46635 1.33325 6.86649 1.33325 9.66675 1.33325H15.0197C16.2427 1.33325 16.8541 1.33325 17.4296 1.4714C17.9398 1.59389 18.4275 1.79591 18.8748 2.07005C19.3794 2.37926 19.8118 2.81164 20.6766 3.6764L25.9903 8.99011C26.855 9.85486 27.2874 10.2872 27.5966 10.7918C27.8708 11.2392 28.0728 11.7269 28.1953 12.2371C28.3334 12.8125 28.3334 13.424 28.3334 14.647Z" stroke="#e6ecf7" stroke-width="2" stroke-linecap="round" stroke-linejoin="round"/>
</svg>
