<svg width="145" height="27" viewBox="0 0 145 27" fill="none" xmlns="http://www.w3.org/2000/svg">
<path d="M4.28906 14.9844V26H0.773438V9.78906C0.773438 9.04688 0.760417 8.26562 0.734375 7.44531C0.721354 6.625 0.695312 5.76562 0.65625 4.86719H3.97656C4.0026 5.46615 4.02214 6.00651 4.03516 6.48828C4.0612 6.97005 4.08073 7.39323 4.09375 7.75781C4.10677 8.10938 4.11328 8.40885 4.11328 8.65625C4.1263 8.89062 4.13281 9.06641 4.13281 9.18359H4.21094C4.60156 7.90755 5.03125 6.91797 5.5 6.21484C5.95573 5.5638 6.47656 5.11458 7.0625 4.86719C7.64844 4.60677 8.37109 4.47656 9.23047 4.47656C9.71224 4.47656 10.1875 4.54167 10.6562 4.67188V7.89453C10.2135 7.76432 9.58854 7.69922 8.78125 7.69922C7.32292 7.69922 6.20964 8.33073 5.44141 9.59375C4.67318 10.8438 4.28906 12.6406 4.28906 14.9844ZM19.4062 26.3906C17.2839 26.3906 15.6888 25.8307 14.6211 24.7109C13.5534 23.5911 13.0195 22.0547 13.0195 20.1016C13.0195 17.9141 13.7357 16.2344 15.168 15.0625C16.6133 13.8906 18.9375 13.2656 22.1406 13.1875L26.8867 13.1094V11.957C26.8867 10.2383 26.5221 9.00781 25.793 8.26562C25.0638 7.52344 23.918 7.15234 22.3555 7.15234C20.7799 7.15234 19.6341 7.41927 18.918 7.95312C18.2018 8.48698 17.7721 9.33984 17.6289 10.5117L13.957 10.1797C14.556 6.3776 17.3815 4.47656 22.4336 4.47656C25.0898 4.47656 27.0885 5.08854 28.4297 6.3125C29.7708 7.52344 30.4414 9.28125 30.4414 11.5859V20.6875C30.4414 21.7292 30.5781 22.5169 30.8516 23.0508C31.125 23.5716 31.6458 23.832 32.4141 23.832C32.7786 23.832 33.1628 23.7865 33.5664 23.6953V25.8828C33.1237 25.987 32.6745 26.0651 32.2188 26.1172C31.763 26.1693 31.3073 26.1953 30.8516 26.1953C29.5495 26.1953 28.599 25.8568 28 25.1797C27.4141 24.4896 27.082 23.4154 27.0039 21.957H26.8867C25.9883 23.5716 24.9401 24.7174 23.7422 25.3945C22.5573 26.0586 21.112 26.3906 19.4062 26.3906ZM26.8867 15.5703L23.0391 15.6484C21.3984 15.6615 20.1484 15.8307 19.2891 16.1562C18.4297 16.4688 17.7721 16.9505 17.3164 17.6016C16.8607 18.2526 16.6328 19.1055 16.6328 20.1602C16.6328 21.306 16.9388 22.1914 17.5508 22.8164C18.1758 23.4414 19.0612 23.7539 20.207 23.7539C21.5091 23.7539 22.6549 23.4609 23.6445 22.875C24.6471 22.2891 25.4349 21.4883 26.0078 20.4727C26.5938 19.444 26.8867 18.3893 26.8867 17.3086V15.5703ZM44.4062 25.8438C43.2604 26.1562 42.0755 26.3125 40.8516 26.3125C39.4453 26.3125 38.3906 25.9154 37.6875 25.1211C36.9844 24.3138 36.6328 23.1159 36.6328 21.5273V7.42578H34.1914V4.86719H36.7695L37.8047 0.140625H40.1484V4.86719H44.0547V7.42578H40.1484V20.7656C40.1484 21.7812 40.3112 22.4974 40.6367 22.9141C40.9753 23.3177 41.5547 23.5195 42.375 23.5195C42.8177 23.5195 43.4948 23.4284 44.4062 23.2461V25.8438ZM50.1094 16.1758C50.1094 18.5977 50.6107 20.4661 51.6133 21.7812C52.6159 23.0964 54.0807 23.7539 56.0078 23.7539C57.5312 23.7539 58.7487 23.4479 59.6602 22.8359C60.5846 22.224 61.2096 21.4492 61.5352 20.5117L64.6211 21.3906C63.3581 24.724 60.487 26.3906 56.0078 26.3906C52.8828 26.3906 50.5 25.4596 48.8594 23.5977C47.2318 21.7357 46.418 18.9688 46.418 15.2969C46.418 11.8073 47.2318 9.13151 48.8594 7.26953C50.5 5.40755 52.8372 4.47656 55.8711 4.47656C58.9831 4.47656 61.3138 5.41406 62.8633 7.28906C64.4128 9.16406 65.1875 11.9701 65.1875 15.707V16.1758H50.1094ZM61.5547 13.4805C61.3594 11.2539 60.793 9.63281 59.8555 8.61719C58.918 7.58854 57.5703 7.07422 55.8125 7.07422C54.1068 7.07422 52.7526 7.64714 51.75 8.79297C50.7604 9.92578 50.2266 11.4883 50.1484 13.4805H61.5547ZM73.2734 14.9844V26H69.7578V9.78906C69.7578 9.04688 69.7448 8.26562 69.7188 7.44531C69.7057 6.625 69.6797 5.76562 69.6406 4.86719H72.9609C72.987 5.46615 73.0065 6.00651 73.0195 6.48828C73.0456 6.97005 73.0651 7.39323 73.0781 7.75781C73.0911 8.10938 73.0977 8.40885 73.0977 8.65625C73.1107 8.89062 73.1172 9.06641 73.1172 9.18359H73.1953C73.5859 7.90755 74.0156 6.91797 74.4844 6.21484C74.9401 5.5638 75.4609 5.11458 76.0469 4.86719C76.6328 4.60677 77.3555 4.47656 78.2148 4.47656C78.6966 4.47656 79.1719 4.54167 79.6406 4.67188V7.89453C79.1979 7.76432 78.5729 7.69922 77.7656 7.69922C76.3073 7.69922 75.194 8.33073 74.4258 9.59375C73.6576 10.8438 73.2734 12.6406 73.2734 14.9844ZM88.3906 26.3906C86.2682 26.3906 84.6732 25.8307 83.6055 24.7109C82.5378 23.5911 82.0039 22.0547 82.0039 20.1016C82.0039 17.9141 82.7201 16.2344 84.1523 15.0625C85.5977 13.8906 87.9219 13.2656 91.125 13.1875L95.8711 13.1094V11.957C95.8711 10.2383 95.5065 9.00781 94.7773 8.26562C94.0482 7.52344 92.9023 7.15234 91.3398 7.15234C89.7643 7.15234 88.6185 7.41927 87.9023 7.95312C87.1862 8.48698 86.7565 9.33984 86.6133 10.5117L82.9414 10.1797C83.5404 6.3776 86.3659 4.47656 91.418 4.47656C94.0742 4.47656 96.0729 5.08854 97.4141 6.3125C98.7552 7.52344 99.4258 9.28125 99.4258 11.5859V20.6875C99.4258 21.7292 99.5625 22.5169 99.8359 23.0508C100.109 23.5716 100.63 23.832 101.398 23.832C101.763 23.832 102.147 23.7865 102.551 23.6953V25.8828C102.108 25.987 101.659 26.0651 101.203 26.1172C100.747 26.1693 100.292 26.1953 99.8359 26.1953C98.5339 26.1953 97.5833 25.8568 96.9844 25.1797C96.3984 24.4896 96.0664 23.4154 95.9883 21.957H95.8711C94.9727 23.5716 93.9245 24.7174 92.7266 25.3945C91.5417 26.0586 90.0964 26.3906 88.3906 26.3906ZM95.8711 15.5703L92.0234 15.6484C90.3828 15.6615 89.1328 15.8307 88.2734 16.1562C87.4141 16.4688 86.7565 16.9505 86.3008 17.6016C85.8451 18.2526 85.6172 19.1055 85.6172 20.1602C85.6172 21.306 85.9232 22.1914 86.5352 22.8164C87.1602 23.4414 88.0456 23.7539 89.1914 23.7539C90.4935 23.7539 91.6393 23.4609 92.6289 22.875C93.6315 22.2891 94.4193 21.4883 94.9922 20.4727C95.5781 19.444 95.8711 18.3893 95.8711 17.3086V15.5703ZM113.391 25.8438C112.245 26.1562 111.06 26.3125 109.836 26.3125C108.43 26.3125 107.375 25.9154 106.672 25.1211C105.969 24.3138 105.617 23.1159 105.617 21.5273V7.42578H103.176V4.86719H105.754L106.789 0.140625H109.133V4.86719H113.039V7.42578H109.133V20.7656C109.133 21.7812 109.296 22.4974 109.621 22.9141C109.96 23.3177 110.539 23.5195 111.359 23.5195C111.802 23.5195 112.479 23.4284 113.391 23.2461V25.8438ZM119.094 16.1758C119.094 18.5977 119.595 20.4661 120.598 21.7812C121.6 23.0964 123.065 23.7539 124.992 23.7539C126.516 23.7539 127.733 23.4479 128.645 22.8359C129.569 22.224 130.194 21.4492 130.52 20.5117L133.605 21.3906C132.342 24.724 129.471 26.3906 124.992 26.3906C121.867 26.3906 119.484 25.4596 117.844 23.5977C116.216 21.7357 115.402 18.9688 115.402 15.2969C115.402 11.8073 116.216 9.13151 117.844 7.26953C119.484 5.40755 121.822 4.47656 124.855 4.47656C127.967 4.47656 130.298 5.41406 131.848 7.28906C133.397 9.16406 134.172 11.9701 134.172 15.707V16.1758H119.094ZM130.539 13.4805C130.344 11.2539 129.777 9.63281 128.84 8.61719C127.902 7.58854 126.555 7.07422 124.797 7.07422C123.091 7.07422 121.737 7.64714 120.734 8.79297C119.745 9.92578 119.211 11.4883 119.133 13.4805H130.539ZM144.328 20.043V26H138.684V20.043H144.328Z" fill="#030812"/>
</svg>
